<svg width="50" height="12" fill="none" xmlns="http://www.w3.org/2000/svg"><path d="M10.261 7.156A5.208 5.208 0 11.155 4.636a5.208 5.208 0 0110.107 2.52z" fill="#F7931A"/><path fill-rule="evenodd" clip-rule="evenodd" d="M7.34 5.236c.103-.709-.416-1.09-1.126-1.343l.23-.96-.562-.145-.224.934c-.148-.038-.3-.074-.451-.11l.226-.94-.562-.146-.23.959a18.188 18.188 0 01-.36-.088l.001-.003-.775-.2-.15.623s.417.1.409.105c.227.06.268.216.262.34l-.263 1.093c.016.004.036.01.059.02l-.02-.005-.04-.01-.367 1.53c-.028.072-.099.18-.258.14a8.733 8.733 0 01-.409-.107l-.279.669.732.19c.082.02.162.042.242.064l.159.043-.233.97.562.146.23-.96c.153.043.302.083.448.12l-.23.956.563.146.232-.97c.959.19 1.68.113 1.983-.787.245-.726-.012-1.144-.516-1.417.367-.088.644-.339.718-.857zM6.057 7.107c-.16.665-1.162.39-1.62.264a8.02 8.02 0 00-.11-.03l.308-1.285.138.033c.475.111 1.447.338 1.284 1.018zM4.868 5.493c.382.106 1.217.337 1.362-.268.148-.618-.663-.805-1.059-.896a4.67 4.67 0 01-.115-.028l-.28 1.167c.026.006.057.015.092.025z" fill="#fff"/><path fill-rule="evenodd" clip-rule="evenodd" d="M16.473 4.063c-.293-.149-.642-.225-1.046-.225-.193 0-.373.023-.541.067a2.946 2.946 0 00-.504.184l.78-3.402-1.952.317-2.18 9.587c.244.123.503.22.776.29.272.07.53.123.775.159.242.034.46.054.648.059.188.004.322.006.398.006.587 0 1.134-.117 1.637-.35a4.12 4.12 0 001.31-.948c.37-.4.662-.87.876-1.412a4.62 4.62 0 00.32-1.72c0-.396-.045-.765-.137-1.109a2.603 2.603 0 00-.428-.896 2.124 2.124 0 00-.732-.607zM14.62 9.259a1.65 1.65 0 01-.832.225h-.226a1.307 1.307 0 01-.27-.028 4.24 4.24 0 00-.133-.026l.831-3.613a1.13 1.13 0 01.511-.278c.189-.042.341-.065.46-.065.36 0 .609.119.743.356.134.238.202.567.202.989a3.071 3.071 0 01-.61 1.84 2.23 2.23 0 01-.676.6zm5.33-5.943c.22.158.47.236.744.236.185 0 .36-.032.524-.101.163-.069.308-.16.431-.275.124-.116.224-.252.299-.41a1.16 1.16 0 00.113-.506c0-.323-.111-.565-.332-.723a1.25 1.25 0 00-.743-.237 1.36 1.36 0 00-.526.102c-.163.07-.307.161-.431.276a1.352 1.352 0 00-.3.41 1.167 1.167 0 00-.112.505c0 .325.11.566.333.723zm-2.179 7.789h1.966l1.673-6.732h-1.979l-1.66 6.732z" fill="#4D4D4D"/><path d="M22.84 2.232l1.923-.319-.473 2.057h2.06l-.372 1.617h-2.047l-.545 2.44c-.05.204-.079.394-.087.57-.009.178.012.33.062.459a.56.56 0 00.266.298c.128.07.312.107.552.107.198 0 .391-.02.578-.06.185-.04.373-.094.563-.166l.137 1.513a6.26 6.26 0 01-.806.251c-.29.071-.633.106-1.03.106-.57 0-1.012-.09-1.327-.271a1.537 1.537 0 01-.67-.744 2.51 2.51 0 01-.174-1.08c.017-.408.075-.836.174-1.287l1.216-5.491zm3.51 5.9c0-.601.098-1.168.293-1.699.195-.531.476-.996.84-1.395a3.933 3.933 0 011.326-.941 4.25 4.25 0 011.737-.346 4.352 4.352 0 011.932.412l-.68 1.54a6.383 6.383 0 00-.553-.192 2.412 2.412 0 00-.699-.087c-.658 0-1.178.226-1.565.677-.386.45-.58 1.058-.58 1.819 0 .45.098.816.294 1.095.195.279.555.418 1.078.418a3.684 3.684 0 001.386-.278l.147 1.579a7.16 7.16 0 01-.826.26 4.605 4.605 0 01-1.079.11c-.55 0-1.017-.08-1.398-.237a2.663 2.663 0 01-.946-.644 2.425 2.425 0 01-.54-.95 3.884 3.884 0 01-.167-1.14z" fill="#4D4D4D"/><path fill-rule="evenodd" clip-rule="evenodd" d="M34.028 10.892c.348.142.758.213 1.231.213.651 0 1.225-.136 1.72-.405a3.92 3.92 0 001.236-1.041c.33-.426.581-.904.75-1.433a5.254 5.254 0 00.253-1.594 3.63 3.63 0 00-.174-1.16 2.588 2.588 0 00-.514-.91 2.29 2.29 0 00-.87-.597 3.277 3.277 0 00-1.224-.214c-.633 0-1.196.136-1.685.405-.49.27-.906.618-1.243 1.043-.34.424-.597.902-.77 1.433a5.087 5.087 0 00-.26 1.594c0 .424.056.81.172 1.16.117.35.288.653.516.909.227.257.515.456.862.597zm1.446-5.216c.222-.167.481-.252.775-.252.374 0 .633.125.776.372.143.248.215.593.215 1.035 0 .274-.038.565-.113.87a3.149 3.149 0 01-.343.842 2.19 2.19 0 01-.56.637 1.251 1.251 0 01-.777.253c-.375 0-.633-.125-.776-.371-.142-.249-.214-.594-.214-1.037 0-.274.037-.563.113-.869a3.18 3.18 0 01.342-.843c.151-.256.339-.468.562-.637zm5.923-2.36c.22.158.468.236.742.236.187 0 .361-.032.526-.101.163-.069.306-.16.431-.275a1.33 1.33 0 00.298-.41c.074-.158.114-.326.114-.506 0-.323-.112-.565-.333-.723a1.25 1.25 0 00-.744-.237c-.185 0-.36.034-.523.102-.163.07-.308.161-.432.276a1.338 1.338 0 00-.299.41 1.166 1.166 0 00-.113.505c0 .325.111.566.333.723zm-2.179 7.789h1.967l1.672-6.732h-1.98l-1.659 6.732z" fill="#4D4D4D"/><path d="M43.847 4.815c.145-.04.308-.09.484-.144a7.34 7.34 0 011.332-.263c.271-.03.58-.044.923-.044 1.01 0 1.705.285 2.089.852.383.568.45 1.345.2 2.33l-.88 3.558H46.07l.853-3.483a7.11 7.11 0 00.123-.633c.03-.203.029-.383-.007-.538a.642.642 0 00-.238-.376c-.127-.096-.317-.144-.576-.144-.25 0-.503.026-.762.076l-1.254 5.098h-1.927l1.565-6.289z" fill="#4D4D4D"/></svg>