<svg width="56" height="15" fill="none" xmlns="http://www.w3.org/2000/svg"><path fill-rule="evenodd" clip-rule="evenodd" d="M15.299 8.806c.098 0 .18-.085.18-.192-.004-1.164-.81-2.246-1.94-2.246-1.128 0-1.93 1.093-1.93 2.257 0 1.164.807 2.258 1.93 2.258.656 0 1.326-.312 1.664-.946a.18.18 0 00.025-.093.183.183 0 00-.047-.129.155.155 0 00-.12-.051.178.178 0 00-.146.093c-.332.519-.775.765-1.375.765-.877 0-1.497-.82-1.582-1.716h3.34zm-1.76-2.078c.878 0 1.513.82 1.583 1.717h-3.165c.086-.897.706-1.717 1.583-1.717z" fill="#3B3B3B"/><path d="M19.818 6.626c.096.002.174.08.177.176a.17.17 0 01-.177.176h-.955v3.728c0 .097-.08.175-.177.176a.182.182 0 01-.177-.176V6.978h-.917a.173.173 0 01-.177-.176.178.178 0 01.177-.176h.917v-1.36a.19.19 0 01.161-.187.176.176 0 01.199.176v1.37h.949zm5.337 1.828V10.7c-.003.096-.074.173-.164.176a.153.153 0 01-.116-.05.177.177 0 01-.047-.126V8.454c0-.76-.401-1.514-1.189-1.514-1.01 0-1.447.946-1.387 1.917 0 .027.01.139.01.155v1.683a.185.185 0 01-.149.186.155.155 0 01-.129-.043.18.18 0 01-.054-.132V3.318c0-.097.073-.175.163-.175.09.002.161.08.164.175v4.174c.282-.541.788-.908 1.377-.908.971 0 1.52.908 1.52 1.87z" fill="#3B3B3B"/><path fill-rule="evenodd" clip-rule="evenodd" d="M31.424 8.806c.098 0 .18-.085.18-.192-.004-1.164-.82-2.246-1.94-2.246-1.128 0-1.93 1.093-1.93 2.257 0 1.164.807 2.258 1.93 2.258.656 0 1.326-.312 1.664-.946a.18.18 0 00.025-.093.183.183 0 00-.047-.129.155.155 0 00-.12-.051.178.178 0 00-.145.093c-.333.519-.776.765-1.376.765-.877 0-1.497-.82-1.582-1.716h3.34zM29.66 6.728c.877 0 1.511.82 1.582 1.717h-3.165c.086-.897.706-1.717 1.583-1.717z" fill="#3B3B3B"/><path d="M35.475 7.164a.167.167 0 01-.158.176c-.99.142-1.437.918-1.437 1.822v1.548a.176.176 0 01-.152.171.17.17 0 01-.132-.039.157.157 0 01-.056-.122V7.19c0-.086.065-.158.152-.171a.17.17 0 01.133.039.157.157 0 01.055.122v.718c.28-.454.833-.884 1.412-.884.086 0 .183.058.183.151z" fill="#3B3B3B"/><path fill-rule="evenodd" clip-rule="evenodd" d="M41.099 8.806c.098 0 .18-.085.181-.192-.005-1.164-.811-2.246-1.94-2.246s-1.93 1.093-1.93 2.257c0 1.164.806 2.258 1.93 2.258.655 0 1.325-.312 1.663-.946a.18.18 0 00.025-.093.183.183 0 00-.047-.129.155.155 0 00-.12-.051.178.178 0 00-.145.093c-.333.519-.776.765-1.376.765-.877 0-1.497-.82-1.582-1.716h3.34zM39.34 6.728c.877 0 1.512.82 1.582 1.717h-3.164c.086-.897.705-1.717 1.582-1.717z" fill="#3B3B3B"/><path opacity=".6" d="M4.19 5.723L0 7.683l4.19 2.555 4.195-2.554L4.19 5.723z" fill="#000"/><path opacity=".8" d="M4.515.563v9.675L9.03 7.696 4.515.563zm0 10.816v3.374L9.03 8.948l-4.515 2.43z" fill="#000"/><path d="M46.44 7.18v3.464a.166.166 0 01-.164.158.164.164 0 01-.118-.045.15.15 0 01-.046-.113v-.658c-.274.52-.757.897-1.374.897-.98 0-1.523-.816-1.523-1.68V7.175a.16.16 0 01.164-.157c.09.002.162.071.165.157v2.028c0 .682.403 1.36 1.194 1.36 1.11 0 1.374-.997 1.374-2.1V7.17c0-.051.027-.1.072-.13a.173.173 0 01.152-.018c.064.029.104.09.104.158zm9.03 1.504v2.035c-.003.086-.078.155-.173.158a.176.176 0 01-.123-.045.147.147 0 01-.05-.114V8.684c0-.685-.423-1.355-1.255-1.355-1.046 0-1.444 1.024-1.444 1.82v1.57c-.002.086-.078.155-.172.158a.176.176 0 01-.124-.045.147.147 0 01-.049-.114V8.684c0-.685-.423-1.355-1.255-1.355-1.057 0-1.491.761-1.455 1.776 0 .024.011.067 0 .081v1.528c0 .083-.066.154-.156.167a.182.182 0 01-.137-.038.151.151 0 01-.057-.12v-3.47c0-.084.067-.156.157-.168a.18.18 0 01.136.038.15.15 0 01.057.12v.579a1.69 1.69 0 011.455-.81c.706 0 1.255.412 1.48 1.011.288-.594.848-1.01 1.564-1.01 1.02 0 1.601.809 1.601 1.67z" fill="#3B3B3B"/><path opacity=".45" d="M0 7.696l4.515 2.542V.563L0 7.696zm0 1.252l4.515 5.805v-3.374L0 8.948z" fill="#000"/></svg>