<svg width="57" height="15" fill="none" xmlns="http://www.w3.org/2000/svg"><path fill-rule="evenodd" clip-rule="evenodd" d="M21.522 3.85h-3.06c-.21 0-.389.15-.421.353l-1.238 7.725a.248.248 0 00.058.202c.049.056.12.088.194.088h1.462c.21 0 .387-.15.42-.354l.334-2.083a.423.423 0 01.42-.354h.968c2.016 0 3.18-.96 3.484-2.863.136-.833.005-1.487-.39-1.945-.436-.503-1.207-.769-2.231-.769zm.353 2.821c-.168 1.081-1.007 1.081-1.818 1.081h-.462l.324-2.018a.254.254 0 01.252-.212h.212c.552 0 1.074 0 1.343.31.16.185.21.46.149.84zm7.33-.034h1.465c.074 0 .145.032.193.088.049.055.07.13.058.202l-.792 4.937a.423.423 0 01-.42.354h-1.32a.257.257 0 01-.194-.089.249.249 0 01-.058-.202l.065-.4s-.723.825-2.028.825c-.76 0-1.4-.216-1.846-.734-.487-.563-.686-1.371-.546-2.216.27-1.693 1.652-2.9 3.272-2.9.706 0 1.414.15 1.73.604l.103.146.065-.403a.254.254 0 01.252-.212zm-.578 2.807c-.141.824-.806 1.377-1.653 1.377-.426 0-.766-.134-.985-.389-.216-.252-.299-.612-.23-1.013a1.633 1.633 0 011.643-1.388c.416 0 .754.136.977.393.223.259.312.621.248 1.02zm8.375-2.807h1.473c.095 0 .182.052.226.134a.248.248 0 01-.017.26l-4.898 6.96a.427.427 0 01-.35.18h-1.47a.256.256 0 01-.227-.137.248.248 0 01.019-.26l1.525-2.12L31.66 6.97a.248.248 0 01.035-.228.256.256 0 01.208-.104h1.447c.188 0 .354.121.408.298l.86 2.83L36.65 6.82a.429.429 0 01.352-.183z" fill="#253B80"/><path fill-rule="evenodd" clip-rule="evenodd" d="M52.987 11.817l1.249-7.758a.252.252 0 01.25-.209h1.406c.074 0 .144.032.192.087.048.055.07.128.058.2l-1.232 7.617a.42.42 0 01-.417.349h-1.256a.256.256 0 01-.192-.087.243.243 0 01-.058-.199zm-9.563-7.966h-3.043a.42.42 0 00-.417.348l-1.23 7.618a.243.243 0 00.057.2.256.256 0 00.192.086h1.562a.293.293 0 00.291-.244l.35-2.16a.42.42 0 01.417-.348h.963c2.004 0 3.16-.947 3.463-2.824.137-.82.005-1.466-.388-1.918-.432-.496-1.199-.758-2.217-.758zm.351 2.782c-.166 1.066-1 1.066-1.807 1.066h-.459l.323-1.99a.25.25 0 01.25-.21h.21c.55 0 1.068 0 1.336.306.16.183.208.454.147.828zm7.287-.034h1.456c.075 0 .145.031.193.086.049.055.07.128.059.2l-.788 4.869a.42.42 0 01-.417.349h-1.313a.256.256 0 01-.193-.087.244.244 0 01-.057-.2l.065-.395s-.72.814-2.017.814c-.756 0-1.39-.213-1.835-.724-.484-.555-.681-1.352-.543-2.185.268-1.67 1.643-2.861 3.253-2.861.702 0 1.405.15 1.72.596l.103.145.064-.398a.25.25 0 01.25-.21zm-.575 2.769c-.14.812-.8 1.358-1.643 1.358-.423 0-.762-.133-.979-.384-.215-.249-.296-.604-.228-1 .132-.805.803-1.368 1.632-1.368.414 0 .75.134.972.387.223.256.311.613.246 1.007z" fill="#179BD7"/><path d="M4.046 13.525l.23-1.523-.512-.013H1.32L3.02.748a.14.14 0 01.138-.123h4.12c1.369 0 2.313.297 2.806.884.23.275.378.562.45.879.074.332.075.728.002 1.212l-.005.036v.31l.231.136c.177.094.335.22.468.373.198.235.326.534.38.888.055.365.037.799-.054 1.29-.106.565-.276 1.057-.507 1.46a2.97 2.97 0 01-.801.917 3.19 3.19 0 01-1.08.508 5.17 5.17 0 01-1.35.163h-.32a.948.948 0 00-.628.24 1.03 1.03 0 00-.326.61l-.025.137-.406 2.685-.018.099c-.005.03-.013.046-.026.057a.066.066 0 01-.042.016h-1.98z" fill="#253B80"/><path d="M11.107 3.85a7.236 7.236 0 01-.044.252C10.487 7.014 8.516 8.02 5.998 8.02H4.716a.62.62 0 00-.615.519l-.656 4.097-.186 1.16a.32.32 0 00.075.26.33.33 0 00.249.114h2.273c.27 0 .498-.193.54-.454l.023-.114.428-2.673.027-.147a.544.544 0 01.54-.455h.34c2.203 0 3.927-.88 4.431-3.427.21-1.064.102-1.953-.455-2.578a2.17 2.17 0 00-.623-.472z" fill="#179BD7"/><path d="M10.44 3.41a3.933 3.933 0 00-.516-.123 6.1 6.1 0 00-1.04-.082H5.732a.515.515 0 00-.497.458l-.67 4.569-.02.133c.043-.3.284-.522.566-.522h1.18c2.318 0 4.132-1.012 4.663-3.941a7.13 7.13 0 00.04-.254 2.722 2.722 0 00-.554-.238z" fill="#222D65"/><path d="M4.955 4.142a.525.525 0 01.515-.453h3.273c.388 0 .75.026 1.08.08.223.037.444.09.66.162.162.055.313.12.452.196.164-1.072-.001-1.802-.566-2.463C9.746.937 8.622.625 7.184.625H3.008a.602.602 0 00-.59.518L.68 12.454a.375.375 0 00.082.297.353.353 0 00.272.129h2.578l.647-4.214.697-4.524z" fill="#253B80"/></svg>