<svg width="94" height="94" fill="none" xmlns="http://www.w3.org/2000/svg"><path d="M93.8 47c0 25.847-20.953 46.8-46.8 46.8C21.153 93.8.2 72.847.2 47 .2 21.153 21.153.2 47 .2 72.847.2 93.8 21.153 93.8 47z" fill="#F9FBFF" stroke="#0037FC" stroke-width=".4"/><path d="M63.948 49.42l-3.598-7.187a3.433 3.433 0 00-2.944-1.633H37.123a3.44 3.44 0 00-2.944 1.633L30.58 49.42l-4.057 3.763a1.634 1.634 0 00-.523 1.2v13.984A1.632 1.632 0 0027.636 70h6.543c.654 0 1.635-.653 1.635-1.307v-1.96h22.9v1.634c0 .653.654 1.633 1.309 1.633h6.87a1.637 1.637 0 001.635-1.633V54.382a1.63 1.63 0 00-.523-1.199l-4.057-3.763zM37.45 43.867h19.628L60.35 50.4H34.178l3.272-6.533zm1.636 15.026c0 .654-.982 1.307-1.636 1.307h-6.87c-.654 0-1.309-.98-1.309-1.633v-3.594c.328-.98.982-1.633 1.963-1.306l6.543 1.306c.654 0 1.309.98 1.309 1.634v2.286zm26.17-.326c0 .653-.653 1.633-1.308 1.633h-6.87c-.654 0-1.635-.653-1.635-1.307v-2.286c0-.654.654-1.634 1.308-1.634l6.543-1.306c.981-.327 1.636.326 1.963 1.306v3.594zM66.894 21h-8.179c-.868 0-1.7.344-2.313.957a3.264 3.264 0 00-.958 2.31H29.27L26 27.533V30.8l3.271 3.267 4.907-4.9 4.908 4.9 4.907-4.9 4.907 4.9h6.543c0 .866.344 1.697.958 2.31a3.274 3.274 0 002.313.956h8.179a1.637 1.637 0 001.635-1.633V22.633A1.632 1.632 0 0066.893 21zm-1.636 11.433a1.632 1.632 0 01-1.636 1.634 1.637 1.637 0 01-1.636-1.634V25.9a1.632 1.632 0 011.636-1.633 1.636 1.636 0 011.636 1.633v6.533z" fill="#0037FC"/></svg>