<svg width="94" height="94" fill="none" xmlns="http://www.w3.org/2000/svg"><path d="M93.8 47c0 25.847-20.953 46.8-46.8 46.8C21.153 93.8.2 72.847.2 47 .2 21.153 21.153.2 47 .2 72.847.2 93.8 21.153 93.8 47z" fill="#F9FBFF" stroke="#0037FC" stroke-width=".4"/><path d="M40.163 41.3c1.516 1.704 2.005 1.843 2.446 1.843.446 0 .94-.139 2.458-1.843.929-1.043 1.961-2.368 2.906-3.733 1.503-2.17 4.024-6.248 4.024-9.178 0-5.177-4.211-9.389-9.389-9.389-5.177 0-9.388 4.212-9.388 9.389 0 2.779 2.195 6.525 4.037 9.179a40.975 40.975 0 002.906 3.731zM38.77 28.323a3.874 3.874 0 013.87-3.87 3.874 3.874 0 013.869 3.87 3.874 3.874 0 01-3.87 3.87 3.874 3.874 0 01-3.869-3.87z" fill="#0037FC"/><path d="M67.37 34.85H53.867l-.313.415c-.054.072-5.447 7.231-6.496 8.408-1.36 1.528-2.635 2.793-4.45 2.793-1.807 0-3.078-1.265-4.437-2.793-1.05-1.18-6.447-8.337-6.502-8.409l-.312-.414h-2.718c-.937 0-1.798.774-1.798 1.69V51.3h42.063V36.54c0-.948-.634-1.69-1.534-1.69zM26.842 67.334c0 .919.817 1.666 1.735 1.666H54.12V56.09H26.842v11.244zM58.91 69h8.398c.918 0 1.596-.747 1.596-1.666V56.09H58.91V69z" fill="#0037FC"/></svg>