<svg width="94" height="94" fill="none" xmlns="http://www.w3.org/2000/svg"><path d="M93.8 47c0 25.847-20.953 46.8-46.8 46.8C21.153 93.8.2 72.847.2 47 .2 21.153 21.153.2 47 .2 72.847.2 93.8 21.153 93.8 47z" fill="#F9FBFF" stroke="#0037FC" stroke-width=".4"/><path d="M62 51.5c-1.8 0-3.45.45-4.95 1.5h-6.6c-1.5-1.05-3.15-1.5-4.95-1.5-4.95 0-9 4.05-9 9s4.05 9 9 9c1.8 0 3.45-.45 4.95-1.5h6.6c1.5 1.05 3.15 1.5 4.95 1.5 4.95 0 9-4.05 9-9s-4.05-9-9-9zM48.5 62H47v1.5c0 .9-.6 1.5-1.5 1.5s-1.5-.6-1.5-1.5V62h-1.5c-.9 0-1.5-.6-1.5-1.5s.6-1.5 1.5-1.5H44v-1.5c0-.9.6-1.5 1.5-1.5s1.5.6 1.5 1.5V59h1.5c.9 0 1.5.6 1.5 1.5s-.6 1.5-1.5 1.5zm13.35.6c-.15.15-.15.3-.3.45-.15.15-.3.3-.45.3-.15 0-.45.15-.6.15-.15 0-.45 0-.6-.15-.15 0-.3-.15-.45-.3-.15-.15-.3-.3-.3-.45-.15-.15-.15-.45-.15-.6 0-.15 0-.45.15-.6.15-.15.15-.3.3-.45.15-.15.3-.3.45-.3.6-.3 1.2-.15 1.65.3.15.15.3.3.3.45 0 .15.15.45.15.6 0 .15 0 .45-.15.6zm3-3c-.15.15-.15.3-.3.45-.15.15-.3.3-.45.3-.15 0-.45.15-.6.15-.15 0-.45 0-.6-.15-.15 0-.3-.15-.45-.3-.3-.3-.45-.6-.45-1.05 0-.45.15-.75.45-1.05l.15-.15c.15 0 .15-.15.3-.15s.15 0 .3-.15h.6c.15 0 .15 0 .3.15.15 0 .15 0 .3.15l.15.15c.3.3.45.75.45 1.05 0 .15 0 .45-.15.6z" fill="#0037FC"/><path d="M43.25 48.8c.15-.75.15-1.5 0-2.25-.3-1.8-1.65-3.15-3.3-3.75-.9-.3-1.95-.6-3.15-.75-3.6-.75-7.65-1.65-9.15-4.8-.6-1.2-.9-2.25-1.2-3.3C24.35 37.25 23 41.3 23 45.5c0 7.8 4.35 14.7 10.65 18.3 0-.3.15-.45.15-.75-.15-.9-.3-1.65-.3-2.55 0-5.85 4.2-10.65 9.75-11.7z" fill="#0037FC"/><path d="M37.4 39.05c1.2.3 2.4.6 3.45.9 2.7.9 4.8 3.15 5.25 6 .15.9.15 1.8 0 2.7 1.8.15 3.45.6 4.95 1.5h4.35c1.5-1.05 2.7-2.4 3.6-3.9 2.1-3.15 2.55-9 2.7-11.55-3.45-6.15-10.05-10.2-17.7-10.2-5.85 0-11.1 2.4-15 6.3 0 .75.3 2.85 1.35 4.95.9 1.95 4.2 2.55 7.05 3.3zm23.85 9.45H62c.9 0 1.8.15 2.7.3.15-1.05.3-2.25.3-3.3 0-1.8-.3-3.45-.6-5.1-.45 2.55-1.2 5.4-2.55 7.35-.3.3-.45.6-.6.75z" fill="#0037FC"/></svg>