<svg width="94" height="94" fill="none" xmlns="http://www.w3.org/2000/svg"><path d="M93.8 47c0 25.847-20.953 46.8-46.8 46.8C21.153 93.8.2 72.847.2 47 .2 21.153 21.153.2 47 .2 72.847.2 93.8 21.153 93.8 47z" fill="#F9FBFF" stroke="#0037FC" stroke-width=".4"/><path d="M19 25h57v36.417H19V25zm20.665 36.49h18.901v6.771h-18.9V61.49zm-3.229 6.802h25.358v1.88H36.436v-1.88z" fill="#0037FC"/><path d="M45.05 40.008h-.1c.07-.327.105-.663.1-.999a3.894 3.894 0 00-.207-1.578 3.744 3.744 0 00-.817-1.343 3.517 3.517 0 00-1.275-.859 3.372 3.372 0 00-1.501-.217c-2.056 0-3.77 2.27-4.75 3.925-.98-1.656-2.694-3.925-4.75-3.925a3.372 3.372 0 00-1.5.217c-.48.186-.915.48-1.276.86-.362.38-.64.837-.817 1.342a3.894 3.894 0 00-.207 1.578c-.005.336.03.672.1 1h-.1a.927.927 0 00-.672.292 1.026 1.026 0 00-.278.707v2.998c0 .265.1.519.278.706.178.188.42.293.672.293h7.6v-2.998h1.9v2.998h7.6a.927.927 0 00.672-.293c.178-.187.278-.441.278-.706v-2.998c0-.265-.1-.52-.278-.707a.927.927 0 00-.672-.293zm-12.772 0c-2.428 0-2.428-.4-2.428-.999 0-1.792 1.085-1.999 1.9-1.999 1.057 0 2.298 1.582 3.143 2.998h-2.615zm8.444 0h-2.615c.845-1.416 2.09-2.998 3.143-2.998.815 0 1.9.207 1.9 1.999 0 .6 0 1-2.428 1zm-3.272 6.996h6.65V52c0 .265-.1.519-.278.706a.927.927 0 01-.672.293h-13.3a.927.927 0 01-.672-.293A1.027 1.027 0 0128.9 52v-4.997h6.65V51h1.9v-3.997zm27.59-5.879L61.875 34H60.29l3.166 7.125h1.584zM58.71 34h-1.585l-3.165 7.125h1.584L58.71 34zm-7.125 17.415c0 .873.708 1.585 1.584 1.585h12.666c.872 0 1.584-.709 1.584-1.585l.79-7.125H50.79l.795 7.125zm11.875-5.54h1.584l-.794 5.54h-1.585l.795-5.54zm-4.75 0h1.584v5.54H58.71v-5.54zm-3.17 0l.79 5.54h-1.58l-.79-5.54h1.58zm12.67-3.96H50.79a.792.792 0 00-.79.795v.79h19v-.79a.792.792 0 00-.79-.795z" fill="#fff"/><path d="M62.737 56.737L77.99 61.21l-3.727 3.727-.354.353.353.354 4.03 4.03-2.618 2.619-4.03-4.03-.354-.354-.353.353-3.728 3.728-4.472-15.253z" fill="#fff" stroke="#1C4EFF"/></svg>