<svg width="94" height="94" fill="none" xmlns="http://www.w3.org/2000/svg"><path d="M93.8 47c0 25.847-20.953 46.8-46.8 46.8C21.153 93.8.2 72.847.2 47 .2 21.153 21.153.2 47 .2 72.847.2 93.8 21.153 93.8 47z" fill="#F9FBFF" stroke="#0037FC" stroke-width=".4"/><path d="M61.986 39.847H39.865v-5.74a6.884 6.884 0 011.994-4.841 6.782 6.782 0 014.805-2.01c3.332 0 6.457 2.024 6.982 5.272 1.116-.487 4.632-1.939 5.44-2.325a13.098 13.098 0 00-5.526-7.21 12.936 12.936 0 00-8.856-1.843 12.99 12.99 0 00-7.91 4.415 13.169 13.169 0 00-3.145 8.541v5.741h-2.308c-.355 0-.697.143-.948.396A1.357 1.357 0 0030 41.2v25.44a1.36 1.36 0 00.39.961 1.339 1.339 0 00.951.399h30.645a1.332 1.332 0 00.951-.399 1.35 1.35 0 00.39-.96V41.198c0-.359-.141-.702-.393-.956a1.336 1.336 0 00-.948-.396zM48.763 55.325v5.423a.843.843 0 01-.244.593.83.83 0 01-.589.246h-2.5a.83.83 0 01-.589-.246.843.843 0 01-.244-.593v-5.422a3.657 3.657 0 01-1.356-1.822 3.686 3.686 0 01-.025-2.277 3.659 3.659 0 011.316-1.851 3.615 3.615 0 014.297 0 3.66 3.66 0 011.316 1.851 3.69 3.69 0 01-.025 2.277 3.658 3.658 0 01-1.357 1.822z" fill="#0037FC"/></svg>