<svg width="94" height="94" fill="none" xmlns="http://www.w3.org/2000/svg"><path d="M93.8 47c0 25.847-20.953 46.8-46.8 46.8C21.153 93.8.2 72.847.2 47 .2 21.153 21.153.2 47 .2 72.847.2 93.8 21.153 93.8 47z" fill="#F9FBFF" stroke="#0037FC" stroke-width=".4"/><path d="M46.216 43.144a3.024 3.024 0 01-3.024 3.024H25.048L19 52.216V28.024A3.024 3.024 0 0122.024 25h21.168a3.024 3.024 0 013.024 3.024v15.12z" fill="#0037FC"/><path d="M38.198 37.75l-.002.002-4.872 4.872-4.872-4.872h0l-.002-.003c-1.073-1.037-2.088-2.239-2.088-3.795a3.74 3.74 0 013.74-3.74c.61 0 1.118.087 1.6.297.485.211.955.552 1.48 1.078l.142.14.142-.14c.526-.526.996-.867 1.48-1.078.483-.21.991-.296 1.601-.296a3.74 3.74 0 013.74 3.739c0 1.55-1.021 2.75-2.09 3.796z" fill="#fff" stroke="#0037FC" stroke-width=".4"/><path d="M49.229 43.144a3.024 3.024 0 003.024 3.024h18.144l6.048 6.048V28.024A3.024 3.024 0 0073.421 25H52.253a3.024 3.024 0 00-3.024 3.024v15.12z" fill="#0037FC"/><path fill-rule="evenodd" clip-rule="evenodd" d="M57.108 31.446c0-.395.321-.716.717-.716h10.027a.716.716 0 110 1.432H57.825a.716.716 0 01-.717-.716zm0 4.297c0-.396.321-.716.717-.716h12.892a.716.716 0 110 1.432H57.825a.716.716 0 01-.717-.716zm0 4.227c0-.396.321-.717.717-.717h8.666a.716.716 0 010 1.432h-8.666a.716.716 0 01-.717-.716z" fill="#fff"/><path d="M59.216 67.144a3.024 3.024 0 01-3.024 3.024H38.048L32 76.216V52.024A3.024 3.024 0 0135.024 49h21.168a3.024 3.024 0 013.024 3.024v15.12z" fill="#0037FC"/><path d="M49.19 54.644l-.717 2.95h4.176a1.432 1.432 0 011.375 1.834l-1.669 5.73a1.432 1.432 0 01-1.375 1.031h-9.67a1.433 1.433 0 01-1.432-1.432v-5.73a1.432 1.432 0 011.433-1.432h1.977a1.434 1.434 0 001.282-.795l2.47-4.935a2.242 2.242 0 012.15 2.779z" fill="#fff"/><path fill-rule="evenodd" clip-rule="evenodd" d="M43.46 56.879c.395 0 .716.32.716.716v8.594a.716.716 0 11-1.432 0v-8.594c0-.396.32-.716.716-.716z" fill="#0037FC"/></svg>