<svg width="92" height="63" fill="none" xmlns="http://www.w3.org/2000/svg"><rect x=".2" y=".2" width="91.6" height="62.6" rx="27.8" fill="#F9FBFF" stroke="#0037FC" stroke-width=".4"/><path fill-rule="evenodd" clip-rule="evenodd" d="M37.335 20.47c1.03-1.183 1.724-2.83 1.534-4.47-1.484.056-3.278.94-4.342 2.121-.955 1.049-1.788 2.724-1.564 4.332 1.654.121 3.343-.799 4.372-1.983zm3.71 10.405c.042 4.238 3.912 5.648 3.955 5.666-.031.1-.618 2.009-2.039 3.983-1.229 1.705-2.503 3.403-4.512 3.44-1.973.034-2.608-1.112-4.865-1.112-2.256 0-2.961 1.075-4.828 1.146-1.939.069-3.416-1.845-4.654-3.544-2.533-3.476-4.467-9.824-1.869-14.108 1.29-2.126 3.596-3.475 6.1-3.509 1.903-.035 3.7 1.217 4.864 1.217 1.163 0 3.347-1.505 5.643-1.284.96.038 3.659.369 5.39 2.778-.14.082-3.219 1.785-3.184 5.327z" fill="#0037FC"/><path d="M68.813 36.492a1.188 1.188 0 01-1.188-1.188v-7.13a1.187 1.187 0 112.375 0v7.13c0 .656-.532 1.188-1.188 1.188zm-3.565-15.2c1.185 2.046 1.19 4.505 1.19 4.505H54.562s-.046-2.492 1.151-4.545l-2.236-2.238a.595.595 0 01.84-.84l2.097 2.099c.879-.974 2.174-1.68 4.086-1.68 1.888 0 3.172.725 4.05 1.715l2.133-2.134a.594.594 0 01.84.84l-2.275 2.277zm-7.717.94a.594.594 0 10.001 1.188.594.594 0 000-1.189zm5.938 0a.594.594 0 100 1.188.594.594 0 000-1.189zM53.375 35.303a1.188 1.188 0 11-2.375 0v-7.13a1.187 1.187 0 112.375 0v7.13zm13.063 2.377c0 1.55-.996 2.855-2.376 3.347v3.784a1.188 1.188 0 11-2.374 0v-3.566h-2.376v3.566a1.188 1.188 0 11-2.374 0v-3.784a3.555 3.555 0 01-2.376-3.347V26.985h11.876V37.68z" fill="#0037FC"/></svg>