<svg width="92" height="63" fill="none" xmlns="http://www.w3.org/2000/svg"><rect x=".2" y=".2" width="91.6" height="62.6" rx="27.8" fill="#F9FBFF" stroke="#0037FC" stroke-width=".4"/><path d="M46.197 48c.194 0 .393-.046.599-.137.205-.091.382-.177.53-.257a357.703 357.703 0 005.811-3.671c1.558-1.01 2.796-1.946 3.714-2.807.919-.862 1.572-1.766 1.96-2.713.388-.947.582-2.071.582-3.372V22.206c0-.959-.151-1.652-.453-2.08-.303-.428-.91-.818-1.823-1.172a60.316 60.316 0 01-1.951-.745c-.64-.256-1.281-.508-1.926-.753s-1.287-.493-1.926-.744a97.05 97.05 0 00-1.934-.736c-.65-.24-1.3-.474-1.951-.702a9.392 9.392 0 00-.625-.197 2.304 2.304 0 00-.607-.077 2.35 2.35 0 00-.6.077 6.758 6.758 0 00-.616.197 211.96 211.96 0 00-3.894 1.472c-.644.25-1.289.5-1.934.744l-1.925.736c-.64.246-1.29.488-1.952.728-.912.342-1.52.73-1.822 1.164-.303.433-.454 1.13-.454 2.088v12.837c0 1.3.2 2.416.6 3.346.398.93 1.06 1.823 1.984 2.679.925.856 2.163 1.794 3.715 2.816a410.625 410.625 0 005.785 3.722c.137.08.308.166.513.257.206.091.406.137.6.137z" fill="#0037FC"/><path d="M44.383 38.738c.148 0 .29-.069.428-.206l9.277-14.36a.52.52 0 00.06-.137.543.543 0 00.025-.154.42.42 0 00-.128-.29.399.399 0 00-.3-.138c-.125 0-.262.08-.41.24l-8.97 13.898-5.1-5.854a.38.38 0 00-.171-.145.572.572 0 00-.223-.043.425.425 0 00-.428.428c0 .103.052.228.154.376l5.358 6.18c.068.068.134.12.197.154.062.034.14.05.23.05z" fill="#fff"/></svg>