<svg width="92" height="63" fill="none" xmlns="http://www.w3.org/2000/svg"><rect x=".2" y=".2" width="91.6" height="62.6" rx="27.8" fill="#F9FBFF" stroke="#0037FC" stroke-width=".4"/><path d="M59.182 24.48C56.462 19.85 51.438 17 46 17c-5.438 0-10.462 2.851-13.182 7.48l.914 16.156 25.45-16.157z" fill="#0037FC"/><path d="M39.59 35.637l-6.56-11.364a15.152 15.152 0 0013.12 22.728L61 31.849l-21.41 3.788z" fill="#0037FC"/><path d="M52.754 35.637l-6.3 11.364c5.197-.002 10-2.89 12.597-7.578a15.697 15.697 0 000-15.15H46.453l6.3 11.364z" fill="#408DFF"/><path d="M46 39.728a7.727 7.727 0 100-15.454 7.727 7.727 0 000 15.454z" fill="#fff"/><path d="M46 37.908a5.909 5.909 0 100-11.818 5.909 5.909 0 000 11.818z" fill="#0037FC"/></svg>