<svg width="92" height="63" fill="none" xmlns="http://www.w3.org/2000/svg"><rect x=".2" y=".2" width="91.6" height="62.6" rx="27.8" fill="#F9FBFF" stroke="#0037FC" stroke-width=".4"/><path d="M32.603 45H58.75c1.521 0 2.668-.383 3.442-1.148.774-.764 1.161-1.898 1.161-3.4V22.549c0-1.503-.386-2.636-1.16-3.401C61.416 18.383 60.27 18 58.748 18H32.603c-1.52 0-2.667.383-3.441 1.148-.775.765-1.162 1.898-1.162 3.4v17.904c0 1.511.387 2.647 1.162 3.407.774.76 1.922 1.141 3.441 1.141z" fill="#0037FC"/><path d="M32.705 42.43c-.68 0-1.204-.18-1.571-.542-.367-.36-.551-.902-.551-1.623v-17.52c0-.72.184-1.26.551-1.622.367-.36.891-.541 1.571-.541h25.929c.68 0 1.207.18 1.58.541.371.361.557.902.557 1.622v17.52c0 .721-.186 1.262-.558 1.623-.372.361-.898.542-1.58.542H32.706z" fill="#fff"/><path d="M33.794 40.405H57.56c.79 0 1.186-.406 1.186-1.216V23.822c0-.811-.395-1.216-1.186-1.216H33.794c-.792 0-1.188.405-1.188 1.216v15.367c0 .81.396 1.216 1.188 1.216z" fill="#0037FC"/></svg>