<svg width="92" height="63" fill="none" xmlns="http://www.w3.org/2000/svg"><rect x=".2" y=".2" width="91.6" height="62.6" rx="27.8" fill="#F9FBFF" stroke="#0037FC" stroke-width=".4"/><path d="M56.746 37.2c-.483 1.116-1.209 2.175-2.167 3.143l-.351.356-1.182 7.862-6.094-4.19-.625.118a19.38 19.38 0 01-3.554.326c-8.092 0-14.675-4.918-14.675-10.964 0-5.86 6.183-10.66 13.93-10.95a32.358 32.358 0 01-1.69-2.719 7.772 7.772 0 01-.114-.217c-3.704.418-7.133 1.743-9.847 3.836-3.446 2.657-5.344 6.226-5.344 10.05 0 3.824 1.898 7.393 5.344 10.05 3.328 2.566 7.73 3.98 12.396 3.98a22.66 22.66 0 003.48-.27l5.73 3.939a2.545 2.545 0 002.464.237 2.54 2.54 0 001.508-1.963l1.157-7.695a13.257 13.257 0 002.368-3.524 7.892 7.892 0 01-1.253-.547c-.501-.272-.995-.56-1.481-.858zm10.081-7.128l-3.786-3.786a1.884 1.884 0 00-1.53-.546 5.336 5.336 0 00-2.832 1.162.715.715 0 01-.894.004 41.455 41.455 0 01-6.305-6.309.718.718 0 01.002-.896 5.33 5.33 0 001.16-2.83 1.89 1.89 0 00-.546-1.53l-3.786-3.786a1.883 1.883 0 00-1.524-.546 5.353 5.353 0 00-3.255 1.541 5.368 5.368 0 00-.903 6.37c2.956 5.393 10.065 13.166 16.848 16.843a5.36 5.36 0 002.558.65 5.402 5.402 0 003.798-1.561 5.354 5.354 0 001.541-3.255 1.888 1.888 0 00-.546-1.525z" fill="#0037FC"/><path d="M35.401 34.04l-2.077 2.309a.513.513 0 00-.132.343v.215c0 .284.23.513.513.513h3.509c.283 0 .513-.23.513-.513v-.153a.513.513 0 00-.513-.513h-2.205l1.257-1.4c.674-.704 1.06-1.453 1.06-2.058 0-1.057-.815-1.767-2.028-1.767-.706 0-1.437.32-1.955.857a.513.513 0 00.007.719l.108.107a.514.514 0 00.732-.007c.295-.306.72-.497 1.108-.497.387 0 .849.102.849.588 0 .231-.23.72-.734 1.245l-.012.012z" fill="#0037FC"/><path d="M40.561 37.42h.154c.284 0 .513-.23.513-.513V35.82h.35c.282 0 .512-.23.512-.513v-.154a.513.513 0 00-.513-.513h-.349v-1.203a.513.513 0 00-.513-.513h-.154a.513.513 0 00-.513.513v1.203h-1.047l1.643-2.856a.512.512 0 00-.444-.768h-.177a.513.513 0 00-.445.257l-2.062 3.586a.512.512 0 00-.069.255v.193c0 .283.23.513.513.513h2.088v1.087c0 .284.23.513.513.513zm3.006-6.63h-.154a.577.577 0 00-.577.576v5.71c0 .319.258.577.577.577h.154a.577.577 0 00.577-.577v-1.947c0-.847.377-1.285 1.108-1.3.567 0 .831.266.831.838v2.409c0 .319.259.577.578.577h.154a.577.577 0 00.577-.577v-2.409c0-1.304-.84-2.147-2.15-2.147a2.608 2.608 0 00-1.098.249v-1.403a.577.577 0 00-.577-.577z" fill="#0037FC"/></svg>